{"accessors" : [{"bufferView" : 0, "byteOffset" : 0, "componentType" : 5123, "count" : 1074, "type" : "SCALAR", "max" : [895], "min" : [0]}, {"bufferView" : 1, "byteOffset" : 0, "componentType" : 5126, "count" : 896, "type" : "VEC3", "max" : [19.700620651245117, 4.192372798919678, 26.797422409057617], "min" : [-19.700624465942383, 0.15157300233840942, -26.79742431640625], "name" : "POSITION"}, {"bufferView" : 1, "byteOffset" : 12, "componentType" : 5126, "count" : 896, "type" : "VEC2", "max" : [1, -0.550000011920929], "min" : [0, -1], "name" : "TEXCOORD_0"}, {"bufferView" : 1, "byteOffset" : 20, "componentType" : 5126, "count" : 896, "type" : "VEC3", "max" : [0.4134235978126526, 1.0000042915344238, 0.2625921964645386], "min" : [-0.4134235978126526, -1.0000042915344238, -0.2625921964645386], "name" : "NORMAL"}], "asset" : {"generator" : "Aspose.3D 22.1", "version" : "2.0"}, "buffers" : [{"uri" : "data:application/octet-stream;base64,", "byteLength" : 36524}], "bufferViews" : [{"buffer" : 0, "byteOffset" : 0, "byteLength" : 2148, "target" : 34963}, {"buffer" : 0, "byteOffset" : 2152, "byteLength" : 34368, "byteStride" : 32, "target" : 34962}], "meshes" : [{"primitives" : [{"attributes" : {"POSITION" : 1, "TEXCOORD_0" : 2, "NORMAL" : 3}, "indices" : 0, "mode" : 4}]}], "nodes" : [{"mesh" : 0, "name" : "dirt"}], "scene" : 0, "scenes" : [{"nodes" : [0]}]}