{"accessors" : [{"bufferView" : 0, "byteOffset" : 0, "componentType" : 5123, "count" : 2280, "type" : "SCALAR", "max" : [1898], "min" : [0]}, {"bufferView" : 1, "byteOffset" : 0, "componentType" : 5126, "count" : 1899, "type" : "VEC3", "max" : [0.7433769702911377, 9.530418395996094, 1.650846004486084], "min" : [-0.7433769702911377, 4.215969085693359, -1.6508469581604004], "name" : "POSITION"}, {"bufferView" : 1, "byteOffset" : 12, "componentType" : 5126, "count" : 1899, "type" : "VEC2", "max" : [1, -0], "min" : [0, -1], "name" : "TEXCOORD_0"}, {"bufferView" : 1, "byteOffset" : 20, "componentType" : 5126, "count" : 1899, "type" : "VEC3", "max" : [1.0000042915344238, 1.0000042915344238, 1.0000042915344238], "min" : [-1.0000042915344238, -1.0000042915344238, -1.0000042915344238], "name" : "NORMAL"}], "asset" : {"generator" : "Aspose.3D 22.1", "version" : "2.0"}, "buffers" : [{"uri" : "data:application/octet-stream;base64,", "byteLength" : 77528}], "bufferViews" : [{"buffer" : 0, "byteOffset" : 0, "byteLength" : 4560, "target" : 34963}, {"buffer" : 0, "byteOffset" : 4564, "byteLength" : 72960, "byteStride" : 32, "target" : 34962}], "meshes" : [{"primitives" : [{"attributes" : {"POSITION" : 1, "TEXCOORD_0" : 2, "NORMAL" : 3}, "indices" : 0, "mode" : 4}]}], "nodes" : [{"mesh" : 0, "name" : "Sunflower_Seed"}], "scene" : 0, "scenes" : [{"nodes" : [0]}]}