{"accessors" : [{"bufferView" : 0, "byteOffset" : 0, "componentType" : 5123, "count" : 7044, "type" : "SCALAR", "max" : [5849], "min" : [0]}, {"bufferView" : 1, "byteOffset" : 0, "componentType" : 5126, "count" : 5850, "type" : "VEC3", "max" : [7.728213787078857, 37.88800811767578, 8.983325958251953], "min" : [-0.7498350143432617, 2.544603109359741, -9.844067573547363], "name" : "POSITION"}, {"bufferView" : 1, "byteOffset" : 12, "componentType" : 5126, "count" : 5850, "type" : "VEC2", "max" : [0.99726402759552, -0], "min" : [0, -1], "name" : "TEXCOORD_0"}, {"bufferView" : 1, "byteOffset" : 20, "componentType" : 5126, "count" : 5850, "type" : "VEC3", "max" : [1.0000042915344238, 1.0000044107437134, 1.0000042915344238], "min" : [-1.0000042915344238, -1.0000042915344238, -1.0000042915344238], "name" : "NORMAL"}], "asset" : {"generator" : "Aspose.3D 22.1", "version" : "2.0"}, "buffers" : [{"uri" : "data:application/octet-stream;base64,", "byteLength" : 239504}], "bufferViews" : [{"buffer" : 0, "byteOffset" : 0, "byteLength" : 14088, "target" : 34963}, {"buffer" : 0, "byteOffset" : 14092, "byteLength" : 225408, "byteStride" : 32, "target" : 34962}], "meshes" : [{"primitives" : [{"attributes" : {"POSITION" : 1, "TEXCOORD_0" : 2, "NORMAL" : 3}, "indices" : 0, "mode" : 4}]}], "nodes" : [{"mesh" : 0, "name" : "pasted__pasted__Sunflower_GEO pasted__group Sunflower"}], "scene" : 0, "scenes" : [{"nodes" : [0]}]}